<svg width="240" height="45" viewBox="0 0 240 45" fill="none" xmlns="http://www.w3.org/2000/svg">
<path d="M22.5644 21.2652C26.6723 21.7588 29.3939 23.4208 29.3939 26.7884C29.3939 29.1617 28.0875 30.9979 26.0699 32.1011C24.2627 33.1244 21.541 33.6252 18.6017 33.6252H9.60928V32.3841C12.3382 32.1374 12.6503 31.8906 12.6503 28.8786V15.3574C12.6503 12.3455 12.3309 12.0987 9.81976 11.8519V10.6109H20.1548C22.8837 10.6109 24.6474 10.9665 25.9973 11.8519C27.3037 12.7011 28.0875 14.1164 28.0875 15.8872C28.0875 19.2476 25.1119 20.6266 22.5644 21.1274V21.2725V21.2652ZM18.1372 20.7717C21.5338 20.7717 23.0579 19.429 23.0579 16.4896C23.0579 13.3035 21.1491 12.0987 19.2331 12.0987C18.4565 12.0987 17.8541 12.3092 17.6436 12.5269C17.3969 12.7737 17.3243 13.3035 17.3243 14.051V20.779H18.1372V20.7717ZM17.3243 28.8061C17.3243 31.4261 18.0355 32.1664 19.908 32.1301C21.8894 32.0938 24.1176 30.6423 24.1176 27.1731C24.1176 23.7039 22.0636 22.1797 18.0283 22.1797H17.317V28.7988L17.3243 28.8061Z" fill="#020F59"/>
<path d="M40.0919 11.8519C37.617 12.0987 37.2976 12.3455 37.2976 15.3574V27.0352C37.2976 31.1431 36.942 34.5034 33.6905 37.196C32.2753 38.4008 30.7874 39.0395 29.3722 39.3879L28.8424 38.0815C30.7512 37.2686 31.818 36.0275 32.1664 33.7994C32.4858 31.818 32.5583 29.5536 32.5583 26.8973V15.3574C32.5583 12.3455 32.2027 12.0987 29.5173 11.8519V10.6109H40.0991V11.8519H40.0919Z" fill="#020F59"/>
<path d="M61.8942 27.6013C61.437 29.2996 60.5152 31.9922 59.9128 33.226C58.9911 33.4365 55.7396 34.1478 53.3301 34.1478C43.9167 34.1478 39.983 28.0222 39.983 22.3975C39.983 15.1397 45.5788 10.081 54.0341 10.081C56.9009 10.081 59.5209 10.8213 60.479 11.0391C60.7983 12.9841 61.0451 14.6171 61.2918 16.8453L59.9854 17.092C58.8169 12.8825 56.0953 11.6415 53.3663 11.6415C48.2351 11.6415 45.4046 16.4896 45.4046 21.6935C45.4046 28.2037 48.9101 32.4858 53.722 32.4858C56.6614 32.4858 58.8532 30.6133 60.6604 27.0352L61.9015 27.6013H61.8942Z" fill="#020F59"/>
<path d="M55.9937 0H0V29.0165C0 37.5807 6.96745 44.5482 15.5316 44.5482H71.5253V15.5316C71.5253 6.96745 64.5578 0 55.9937 0ZM69.4786 42.5087H15.5316C8.08515 42.5087 2.04669 36.4703 2.04669 29.0238V2.04669H55.9937C63.4401 2.04669 69.4786 8.08515 69.4786 15.5316V42.5087Z" fill="#020F59"/>
<path d="M104.519 11.8156C101.754 12.0624 101.543 12.2801 101.543 15.2921V28.944C101.543 31.9196 101.826 32.1374 104.519 32.3841V33.6252H93.705V32.3841C96.5428 32.1374 96.7896 31.8906 96.7896 28.9077V22.3104H87.1077V28.9077C87.1077 31.9197 87.3907 32.1374 90.0181 32.3841V33.6252H79.4508V32.3841C82.0418 32.1374 82.3611 31.9197 82.3611 28.9077V15.2921C82.3611 12.2801 82.0418 12.0624 79.3129 11.8156V10.5746H89.9527V11.8156C87.398 12.0624 87.115 12.2801 87.115 15.2921V20.5032H96.7968V15.2921C96.7968 12.2801 96.5138 12.0624 93.8864 11.8156V10.5746H104.526V11.8156H104.519Z" fill="#020F59"/>
<path d="M118.86 30.1125C116.698 33.3422 113.932 34.0462 112.481 34.0462C107.763 34.0462 105.143 30.5334 105.143 26.4546C105.143 23.7619 106.275 21.4902 107.771 20.0387C109.331 18.4783 111.283 17.5202 113.228 17.5202C116.487 17.5202 119.006 20.3217 118.977 23.2321C118.977 23.9434 118.766 24.4006 117.946 24.5095C117.307 24.5821 112.982 24.9377 109.505 25.0756C109.679 28.8714 111.777 30.7874 114.295 30.7874C115.682 30.7874 116.988 30.3229 118.229 29.2633L118.868 30.1125H118.86ZM109.679 23.4135C111.131 23.3773 112.445 23.341 113.896 23.3047C114.426 23.2684 114.607 23.1958 114.644 22.5934C114.644 20.7862 113.867 18.9428 112.481 18.9428C111.095 18.9428 109.89 20.5758 109.679 23.4135Z" fill="#020F59"/>
<path d="M131.307 34.0534C130.349 34.0534 129.602 33.7341 129.145 33.3059C128.651 32.8777 128.397 32.4204 128.223 31.9922C126.873 32.8777 125.211 34.0462 124.536 34.0462C121.524 34.0462 119.746 31.7092 119.746 29.5101C119.746 27.6666 120.595 26.7812 122.438 26.1062C124.529 25.3296 127.258 24.4732 128.078 23.7692V22.7023C128.078 20.4669 127.229 19.2258 125.915 19.2258C125.45 19.2258 125.066 19.4363 124.746 19.8645C124.318 20.358 123.999 21.2144 123.716 22.3104C123.469 23.2321 122.968 23.5152 122.228 23.5152C121.306 23.5152 120.029 22.666 120.029 21.7443C120.029 21.1056 120.457 20.6483 121.27 20.0387C122.62 19.117 125.138 17.8759 127.156 17.5202C128.608 17.5202 129.674 17.8396 130.633 18.5508C132.157 19.7193 132.476 21.2435 132.476 23.2321V29.0819C132.476 30.7149 133.042 31.1721 133.608 31.1721C134.036 31.1721 134.421 31.0269 134.813 30.889L135.169 32.0213L131.3 34.0462L131.307 34.0534ZM128.078 25.1554C127.439 25.4748 126.837 25.8667 126.125 26.2513C125.03 26.8174 124.456 27.4561 124.456 28.6609C124.456 30.6495 125.77 31.3898 126.583 31.3898C127.076 31.3898 127.468 31.2447 128.071 30.8237V25.1482L128.078 25.1554Z" fill="#020F59"/>
<path d="M135.423 33.6252V32.493C137.513 32.1737 137.731 31.9995 137.731 29.7278V13.4849C137.731 11.3584 137.556 11.2495 135.604 11.0028V9.97217C137.622 9.7254 140.249 9.26091 142.238 8.6948V29.7205C142.238 32.0938 142.448 32.239 144.611 32.4858V33.618H135.43L135.423 33.6252Z" fill="#020F59"/>
<path d="M151.992 33.6615C151.353 33.9083 150.787 34.0534 150.541 34.0534C147.812 34.0534 146.215 32.7761 146.215 29.5826V19.654H143.98L143.805 19.2258L144.8 17.9485H146.215V15.3574L150.221 12.5922L150.715 12.8027V17.9412H154.191C154.619 18.3331 154.547 19.3565 153.981 19.6468H150.722V28.4069C150.722 31.1721 151.999 31.4914 152.74 31.4914C153.342 31.4914 153.908 31.3463 154.511 31.0632L154.866 32.3043L151.992 33.6543V33.6615Z" fill="#020F59"/>
<path d="M165.354 33.6252V32.493C167.059 32.2463 167.161 31.9995 167.161 30.0471V23.8055C167.161 21.0765 165.992 20.1548 164.606 20.1548C163.757 20.1548 162.799 20.4016 162.051 21.1491V30.0471C162.051 31.9995 162.197 32.2463 163.684 32.493V33.6252H155.28V32.493C157.298 32.2825 157.515 32.1374 157.515 29.902V13.3761C157.515 11.2132 157.37 11.2132 155.527 11.0028V9.97217C157.406 9.7254 159.925 9.22462 162.051 8.6948V19.8282C163.256 18.5871 165.027 17.5202 166.769 17.5202C169.853 17.5202 171.661 19.5089 171.661 23.4063V29.8947C171.661 32.1664 171.871 32.1664 173.715 32.4858V33.618H165.346L165.354 33.6252Z" fill="#020F59"/>
<path d="M196.243 27.594C195.778 29.2996 194.856 31.9922 194.254 33.2333C193.332 33.4438 190.066 34.155 187.657 34.155C178.222 34.155 174.288 28.0222 174.288 22.3829C174.288 15.1107 179.891 10.0447 188.368 10.0447C191.242 10.0447 193.862 10.7923 194.82 11.0028C195.14 12.9551 195.386 14.5808 195.633 16.8162L194.319 17.063C193.151 12.8462 190.422 11.6052 187.686 11.6052C182.547 11.6052 179.71 16.4606 179.71 21.6789C179.71 28.2037 183.222 32.493 188.041 32.493C190.988 32.493 193.18 30.6133 194.994 27.0352L196.235 27.6013L196.243 27.594Z" fill="#020F59"/>
<path d="M208.77 34.0534C207.812 34.0534 207.064 33.7341 206.607 33.3059C206.113 32.8777 205.859 32.4204 205.685 31.9922C204.335 32.8777 202.673 34.0462 201.998 34.0462C198.986 34.0462 197.208 31.7092 197.208 29.5101C197.208 27.6666 198.057 26.7812 199.901 26.1062C201.991 25.3296 204.72 24.4732 205.54 23.7692V22.7023C205.54 20.4669 204.691 19.2258 203.377 19.2258C202.913 19.2258 202.528 19.4363 202.209 19.8645C201.78 20.358 201.461 21.2144 201.178 22.3104C200.931 23.2321 200.43 23.5152 199.69 23.5152C198.768 23.5152 197.491 22.666 197.491 21.7443C197.491 21.1056 197.919 20.6483 198.732 20.0387C200.082 19.117 202.6 17.8759 204.618 17.5202C206.07 17.5202 207.137 17.8396 208.095 18.5508C209.619 19.7193 209.938 21.2435 209.938 23.2321V29.0819C209.938 30.7149 210.504 31.1721 211.07 31.1721C211.499 31.1721 211.883 31.0269 212.275 30.889L212.631 32.0213L208.762 34.0462L208.77 34.0534ZM205.54 25.1554C204.901 25.4748 204.299 25.8667 203.588 26.2513C202.492 26.8174 201.918 27.4561 201.918 28.6609C201.918 30.6495 203.232 31.3898 204.045 31.3898C204.538 31.3898 204.93 31.2447 205.533 30.8237V25.1482L205.54 25.1554Z" fill="#020F59"/>
<path d="M220.077 21.2507C221.355 19.0516 222.734 17.5275 224.047 17.5275C225.462 17.5275 226.42 18.5218 226.42 19.7266C226.42 21.004 225.644 21.9983 224.686 22.3539C224.192 22.5281 223.837 22.4265 223.59 22.2088C222.988 21.7152 222.559 21.4612 221.957 21.4612C221.282 21.4612 220.571 21.9257 219.968 23.3047V29.902C219.968 32.1011 220.179 32.239 222.915 32.493V33.6252H213.197V32.493C215.113 32.2825 215.469 32.1011 215.469 29.902V22.1725C215.469 20.3653 215.185 20.2201 213.552 19.8355V18.8412C215.679 18.5581 217.769 18.1662 219.968 17.4912V21.2507H220.077Z" fill="#020F59"/>
<path d="M239.884 30.1125C237.721 33.3422 234.956 34.0462 233.504 34.0462C228.787 34.0462 226.166 30.5334 226.166 26.4546C226.166 23.7619 227.299 21.4902 228.794 20.0387C230.354 18.4783 232.307 17.5202 234.252 17.5202C237.518 17.5202 240.029 20.3217 240 23.2321C240 23.9434 239.789 24.4006 238.969 24.5095C238.33 24.5821 234.005 24.9377 230.528 25.0756C230.703 28.8714 232.8 30.7874 235.319 30.7874C236.705 30.7874 238.011 30.3229 239.252 29.2633L239.891 30.1125H239.884ZM230.703 23.4135C232.154 23.3773 233.468 23.341 234.919 23.3047C235.449 23.2684 235.631 23.1958 235.667 22.5934C235.667 20.7862 234.89 18.9428 233.504 18.9428C232.118 18.9428 230.913 20.5758 230.703 23.4135Z" fill="#020F59"/>
</svg>
