<?xml version="1.0" encoding="UTF-8" standalone="no"?>
<!-- Created with Inkscape (http://www.inkscape.org/) -->

<svg
   width="86.724083mm"
   height="72.415283mm"
   viewBox="0 0 86.724083 72.415283"
   version="1.1"
   id="svg1"
   xml:space="preserve"
   sodipodi:docname="logo2.svg"
   inkscape:version="1.3.2 (091e20e, 2023-11-25)"
   xmlns:inkscape="http://www.inkscape.org/namespaces/inkscape"
   xmlns:sodipodi="http://sodipodi.sourceforge.net/DTD/sodipodi-0.dtd"
   xmlns="http://www.w3.org/2000/svg"
   xmlns:svg="http://www.w3.org/2000/svg"><sodipodi:namedview
     id="namedview1"
     pagecolor="#ffffff"
     bordercolor="#000000"
     borderopacity="0.25"
     inkscape:showpageshadow="2"
     inkscape:pageopacity="0.0"
     inkscape:pagecheckerboard="0"
     inkscape:deskcolor="#d1d1d1"
     inkscape:document-units="mm"
     inkscape:zoom="1.8183146"
     inkscape:cx="163.88803"
     inkscape:cy="136.66502"
     inkscape:window-width="1392"
     inkscape:window-height="1014"
     inkscape:window-x="0"
     inkscape:window-y="25"
     inkscape:window-maximized="0"
     inkscape:current-layer="layer1" /><defs
     id="defs1" /><g
     id="layer2"
     transform="translate(-56.944894,-90.020665)"><rect
       style="fill:#d1cdc4;fill-opacity:0.454902;stroke-width:0.264583"
       id="rect14"
       width="86.724075"
       height="72.415283"
       x="56.944893"
       y="90.020668"
       ry="0" /></g><g
     id="layer1"
     transform="translate(-56.944894,-90.020665)"><path
       style="fill:#7a402e;fill-opacity:1;stroke-width:0.264583"
       id="path1"
       d="m -140.44345,-43.00119 a 19.095291,9.3771515 0 0 1 -9.65373,8.150705 19.095291,9.3771515 0 0 1 -19.20019,-0.09056 19.095291,9.3771515 0 0 1 -9.33314,-8.240257 l 19.09177,0.180111 z"
       transform="rotate(-135.15362)" /><path
       style="fill:#a65328;fill-opacity:1;fill-rule:nonzero;stroke-width:0.264583"
       id="path2"
       d="m 35.877949,-185.97066 a 19.095291,9.3771515 0 0 1 -9.653725,8.15071 19.095291,9.3771515 0 0 1 -19.2001923,-0.0906 19.095291,9.3771515 0 0 1 -9.3331425,-8.24026 l 19.0917688,0.18011 z"
       transform="rotate(134.84638)" /><path
       style="fill:#2f4d49;fill-opacity:1;stroke-width:0.264583"
       id="path3"
       d="m 181.45619,-7.0264521 a 19.095291,9.3771515 0 0 1 -9.65372,8.1507052 19.095291,9.3771515 0 0 1 -19.2002,-0.090559 19.095291,9.3771515 0 0 1 -9.33314,-8.2402577 l 19.09177,0.1801113 z"
       transform="rotate(44.84638)" /><path
       style="fill:#61603c;fill-opacity:1;stroke-width:0.264583"
       id="path4"
       d="m -0.09679031,135.92899 a 19.095291,9.3771515 0 0 1 -9.65372509,8.1507 19.095291,9.3771515 0 0 1 -19.2001916,-0.0906 19.095291,9.3771515 0 0 1 -9.333143,-8.24026 l 19.091769,0.18012 z"
       transform="rotate(-45.15362)" /><g
       id="g5"
       transform="matrix(1.3279197,0,0,1.210042,85.673021,109.89295)"
       style="fill:#c2803a;fill-opacity:1"><g
         id="Layer_1"
         style="fill:#c2803a;fill-opacity:1" /><g
         id="Layer_2"
         style="fill:#c2803a;fill-opacity:1">

<path
   d="M 13.9,3.6 C 13.5,3 12.8,2.6 12,2.6 11.2,2.6 10.5,3 10.1,3.6 L 5.8,9.5 c -2.4,3.4 -1.7,8.1 1.6,10.6 1.4,1 3,1.5 4.6,1.5 1.6,0 3.2,-0.5 4.6,-1.5 3.3,-2.5 4,-7.3 1.6,-10.6 z m -0.5,15.3 c -0.8,0.6 -1.9,0.6 -2.7,0 -1,-0.7 -1.2,-2.1 -0.5,-3.1 l 1.8,-2.5 1.8,2.5 c 0.7,0.9 0.5,2.3 -0.4,3.1 z m 2.8,-1.1 c 0.2,-1.1 0,-2.3 -0.7,-3.2 l -2.1,-2.9 c -0.6,-0.9 -2.1,-0.9 -2.7,0 l -2.1,2.9 c -0.7,1 -0.9,2.1 -0.7,3.2 -1.8,-1.9 -2,-4.9 -0.4,-7.1 l 4.3,-5.9 c 0.1,-0.1 0.2,-0.1 0.3,-0.1 0.1,0 0.2,0 0.3,0.1 l 4.3,5.9 c 0.676289,0.991891 0.986685,2.1464 0.967846,3.289398 C 17.644901,15.381554 17.133539,16.756633 16.2,17.8 Z"
   id="path1-5"
   style="fill:#c2803a;fill-opacity:1"
   sodipodi:nodetypes="cscccscccccccccccccccccsccsc" />

</g></g><path
       style="fill:#2f4d49;fill-opacity:1;stroke-width:0.264583"
       id="path11"
       d="m 120.21269,100.8515 a 6.9038587,7.4711976 0 0 1 8.30243,-4.664618 6.9038587,7.4711976 0 0 1 4.97668,8.571938 6.9038587,7.4711976 0 0 1 -7.48625,6.07041 6.9038587,7.4711976 0 0 1 -6.20442,-7.5764" /><path
       style="fill:#a65328;fill-opacity:1;stroke-width:0.264583"
       id="path12"
       d="m 120.21444,146.5695 a 6.9038587,7.4711976 0 0 1 8.30243,-4.66462 6.9038587,7.4711976 0 0 1 4.97668,8.57194 6.9038587,7.4711976 0 0 1 -7.48626,6.07041 6.9038587,7.4711976 0 0 1 -6.20442,-7.5764" /><path
       style="fill:#7a402e;fill-opacity:1;stroke-width:0.264583"
       id="path13"
       d="m 69.662463,146.57124 a 6.9038587,7.4711976 0 0 1 8.302424,-4.66462 6.9038587,7.4711976 0 0 1 4.97668,8.57194 6.9038587,7.4711976 0 0 1 -7.486254,6.07041 6.9038587,7.4711976 0 0 1 -6.204418,-7.5764" /><path
       style="fill:#61603c;fill-opacity:1;stroke-width:0.264583"
       id="path14"
       d="m 69.660716,100.85325 a 6.9038587,7.4711976 0 0 1 8.302424,-4.664621 6.9038587,7.4711976 0 0 1 4.97668,8.571941 6.9038587,7.4711976 0 0 1 -7.486254,6.07041 6.9038587,7.4711976 0 0 1 -6.204418,-7.5764" /></g><style
     type="text/css"
     id="style1">
	.st0{opacity:0.2;fill:none;stroke:#000000;stroke-width:5.000000e-02;stroke-miterlimit:10;}
</style></svg>
