<?xml version="1.0" encoding="UTF-8" standalone="no"?>
<!-- Generator: Adobe Illustrator 26.0.3, SVG Export Plug-In . SVG Version: 6.00 Build 0)  -->

<svg
   version="1.0"
   id="katman_1"
   x="0px"
   y="0px"
   viewBox="0 0 800 600"
   style="enable-background:new 0 0 800 600;"
   xml:space="preserve"
   sodipodi:docname="todo.svg"
   inkscape:version="1.3.2 (091e20e, 2023-11-25)"
   xmlns:inkscape="http://www.inkscape.org/namespaces/inkscape"
   xmlns:sodipodi="http://sodipodi.sourceforge.net/DTD/sodipodi-0.dtd"
   xmlns:xlink="http://www.w3.org/1999/xlink"
   xmlns="http://www.w3.org/2000/svg"
   xmlns:svg="http://www.w3.org/2000/svg"><defs
   id="defs7"><linearGradient
     id="linearGradient7"
     inkscape:collect="always"><stop
       style="stop-color:#000000;stop-opacity:1;"
       offset="0"
       id="stop7" /><stop
       style="stop-color:#000000;stop-opacity:0;"
       offset="1"
       id="stop8" /></linearGradient><linearGradient
     inkscape:collect="always"
     xlink:href="#linearGradient7"
     id="linearGradient8"
     x1="370.6"
     y1="309.75"
     x2="709.7"
     y2="309.75"
     gradientUnits="userSpaceOnUse" /></defs><sodipodi:namedview
   id="namedview7"
   pagecolor="#ffffff"
   bordercolor="#000000"
   borderopacity="0.25"
   inkscape:showpageshadow="2"
   inkscape:pageopacity="0.0"
   inkscape:pagecheckerboard="0"
   inkscape:deskcolor="#d1d1d1"
   inkscape:zoom="0.65625"
   inkscape:cx="400"
   inkscape:cy="299.42857"
   inkscape:window-width="1392"
   inkscape:window-height="1014"
   inkscape:window-x="0"
   inkscape:window-y="25"
   inkscape:window-maximized="0"
   inkscape:current-layer="g7" />
<style
   type="text/css"
   id="style1">
	.st0{fill:#A1D33C;}
	.st1{fill:#FFFFFF;}
	.st2{fill:#231F20;}
</style>
<g
   id="g7">
	<circle
   class="st0"
   cx="209.6"
   cy="299.6"
   r="119"
   id="circle1"
   style="fill:none" />
	<g
   id="g2"
   style="fill:#61603c;fill-opacity:1">
		<path
   class="st1"
   d="M180.3,346.3c-1.9,6.2-4.4,9.7-12.7,9.7c-7,0-10.2-2.7-10.2-7c0-1.4,0.3-3,0.8-4.4l28.3-99.4    c1.9-6.2,4.4-9.7,12.5-9.7c7.2,0,10.3,2.7,10.3,7c0,1.6-0.5,3-0.9,4.7L180.3,346.3z"
   id="path1"
   style="fill:#61603c;fill-opacity:1" />
		<path
   class="st1"
   d="M234.7,346.3c-1.9,6.2-4.4,9.7-12.7,9.7c-7,0-10.2-2.7-10.2-7c0-1.4,0.3-3,0.8-4.4l28.3-99.4    c1.9-6.2,4.4-9.7,12.5-9.7c7.2,0,10.3,2.7,10.3,7c0,1.6-0.5,3-0.9,4.7L234.7,346.3z"
   id="path2"
   style="fill:#61603c;fill-opacity:1" />
	</g>
	<g
   id="g6"
   style="fill:#61603c;fill-opacity:1;stroke:#000000;stroke-width:1;stroke-dasharray:none;stroke-opacity:1"
   transform="translate(-45.714286,-9.75)">
		<path
   class="st2"
   d="m 405,340.8 c 0,1.6 0,2.7 -0.6,3.6 -0.6,0.9 -2.2,1.7 -4.1,1.7 -2,0 -3.6,-0.6 -4.2,-1.7 -0.6,-0.9 -0.6,-2.2 -0.6,-3.6 v -58.1 h -19.4 c -1.4,0 -2.5,-0.2 -3.6,-0.8 -0.9,-0.6 -1.4,-1.7 -1.4,-3.4 0,-1.7 0.5,-3 1.4,-3.6 0.9,-0.6 2.2,-0.8 3.6,-0.8 h 48.1 c 1.4,0 2.5,0.2 3.6,0.8 0.9,0.6 1.4,1.7 1.4,3.4 0,1.7 -0.5,3 -1.4,3.6 -0.9,0.6 -2.2,0.8 -3.6,0.8 H 405 Z"
   id="path3"
   style="fill:#61603c;fill-opacity:1;stroke:#000000;stroke-width:1;stroke-dasharray:none;stroke-opacity:1" />
		<path
   class="st2"
   d="m 486.4,272.4 c 22.5,0 36.6,15.6 36.6,37.2 0,22 -14.4,37.5 -36.9,37.5 -22.5,0 -36.6,-15.6 -36.6,-37.2 -0.2,-22 14.4,-37.5 36.9,-37.5 z m 0,66.4 c 16.2,0 26.7,-10.6 26.7,-29.1 0,-18.6 -10.6,-29.4 -26.9,-29.4 -16.3,0 -26.7,10.6 -26.7,29.1 -0.2,18.8 10.3,29.4 26.9,29.4 z"
   id="path4"
   style="fill:#61603c;fill-opacity:1;stroke:#000000;stroke-width:1;stroke-dasharray:none;stroke-opacity:1" />
		<path
   class="st2"
   d="m 596.2,339.1 c -8.9,5.8 -20.2,7 -30,7 -6.6,0 -12,-0.5 -14.8,-1.4 -2.8,-0.9 -3.1,-2.3 -3.1,-5.6 v -58.7 c 0,-3.6 0.9,-5 5.2,-5.9 3.1,-0.6 8.6,-1.1 14.8,-1.1 11.6,0 21.4,1.6 29.1,7 7.7,5.3 13.4,14.5 13.4,28.9 -0.2,15.7 -7,24.7 -14.6,29.8 z m -38.3,-1.7 c 0,0 3.6,0.5 9.8,0.5 9.7,0 33,-1.2 33,-28 0,-11.1 -4.1,-18.3 -9.7,-22.5 -5.6,-4.4 -12.8,-5.8 -22.5,-5.8 -6.9,0 -10.8,0.8 -10.8,0.8 z"
   id="path5"
   style="fill:#61603c;fill-opacity:1;stroke:#000000;stroke-width:1;stroke-dasharray:none;stroke-opacity:1" />
		<path
   class="st2"
   d="m 672.6,272.4 c 22.5,0 36.6,15.6 36.6,37.2 0,22 -14.4,37.5 -36.9,37.5 -22.5,0 -36.6,-15.6 -36.6,-37.2 0,-22 14.5,-37.5 36.9,-37.5 z m 0,66.4 c 16.2,0 26.7,-10.6 26.7,-29.1 0,-18.6 -10.6,-29.4 -26.9,-29.4 -16.3,0 -26.7,10.6 -26.7,29.1 0,18.8 10.6,29.4 26.9,29.4 z"
   id="path6"
   style="fill:#61603c;fill-opacity:1;stroke:#000000;stroke-width:1;stroke-dasharray:none;stroke-opacity:1" />
	</g>
</g>
</svg>
